<?xml version="1.0" standalone="no"?>
<!DOCTYPE svg PUBLIC "-//W3C//DTD SVG 20010904//EN"
 "http://www.w3.org/TR/2001/REC-SVG-20010904/DTD/svg10.dtd">
<svg version="1.0" xmlns="http://www.w3.org/2000/svg"
 width="454.000000pt" height="185.007333pt" viewBox="0 0 454.000000 185.007333"
 preserveAspectRatio="xMidYMid meet">
<g transform="translate(-285.000000,215.007333) scale(0.100000,-0.100000)"
fill="#000000" stroke="none">
<path d="M3103 2116 c-35 -32 -37 -38 -41 -102 -4 -82 15 -126 68 -162 107
-72 226 83 164 214 -42 88 -126 110 -191 50z"/>
<path d="M2850 1578 c0 -585 4 -638 48 -724 30 -58 77 -114 132 -155 50 -37
154 -79 197 -79 23 0 23 1 8 30 -8 16 -18 49 -21 73 -6 40 -10 45 -60 71 -63
33 -107 84 -137 159 -21 51 -22 67 -25 615 l-3 562 -70 0 -69 0 0 -552z"/>
<path d="M3393 2065 c-70 -49 -37 -195 44 -195 59 0 93 40 93 110 0 78 -78
127 -137 85z"/>
<path d="M3585 1955 c-29 -28 -33 -71 -10 -114 39 -77 135 -40 135 52 0 80
-72 116 -125 62z"/>
<path d="M4078 1834 c-35 -18 -48 -43 -48 -89 0 -53 36 -85 95 -85 59 0 95 32
95 85 0 47 -14 71 -50 90 -36 19 -57 18 -92 -1z"/>
<path d="M7240 1605 c0 -135 -3 -245 -6 -245 -4 0 -26 18 -49 39 -82 76 -180
107 -302 98 -232 -17 -398 -220 -380 -466 9 -135 75 -260 175 -331 79 -57 140
-75 247 -74 115 1 184 26 260 96 l55 50 0 -66 0 -66 75 0 75 0 0 605 0 605
-75 0 -75 0 0 -245z m-163 -271 c98 -47 154 -136 161 -255 6 -99 -14 -162 -73
-227 -59 -66 -127 -96 -220 -96 -171 -1 -296 132 -294 312 1 225 224 364 426
266z"/>
<path d="M3742 1832 c-22 -15 -31 -66 -16 -100 14 -34 46 -42 84 -22 27 15 36
74 16 105 -17 25 -57 33 -84 17z"/>
<path d="M3299 1793 c-15 -2 -51 -18 -80 -36 -63 -39 -91 -87 -97 -169 -9
-126 67 -222 213 -268 59 -19 105 -57 127 -108 35 -78 11 -149 -86 -261 -86
-99 -106 -186 -63 -271 27 -56 72 -80 145 -80 136 0 232 102 282 301 12 46 40
147 63 224 37 124 42 152 42 240 0 85 -4 107 -24 150 -30 62 -158 190 -227
227 -85 46 -200 66 -295 51z"/>
<path d="M3837 1672 c-32 -35 -12 -102 29 -102 21 0 54 37 54 61 0 54 -49 78
-83 41z"/>
<path d="M4809 1477 c-64 -22 -155 -84 -166 -113 -12 -33 -23 -9 -23 51 l0 65
-70 0 -70 0 0 -590 0 -590 73 0 72 0 -3 235 c-3 129 -1 235 3 235 4 0 31 -22
61 -49 88 -81 205 -113 329 -92 92 16 170 58 233 125 190 201 144 553 -91 691
-98 57 -237 70 -348 32z m248 -147 c35 -17 76 -47 93 -68 77 -94 92 -236 35
-348 -94 -182 -352 -215 -490 -62 -59 65 -79 128 -73 227 14 230 227 353 435
251z"/>
<path d="M5820 1484 c-206 -55 -329 -257 -300 -491 37 -291 349 -454 628 -328
56 26 137 86 146 110 3 9 -13 27 -42 48 l-46 35 -36 -29 c-161 -129 -400 -87
-481 84 -16 34 -29 68 -29 75 0 9 77 12 351 12 l352 0 -5 93 c-7 108 -31 179
-86 252 -98 130 -279 185 -452 139z m268 -151 c56 -35 101 -95 117 -160 l12
-48 -275 -3 c-151 -1 -277 -1 -278 1 -2 2 3 26 11 54 18 60 81 135 137 164 86
44 198 41 276 -8z"/>
<path d="M4050 1060 l0 -420 75 0 75 0 0 420 0 420 -75 0 -75 0 0 -420z"/>
</g>
</svg>
